<?xml version="1.0" encoding="UTF-8"?>
<svg id="Lager_1" xmlns="http://www.w3.org/2000/svg" version="1.1" viewBox="0 0 513 342.11">
  <!-- Generator: Adobe Illustrator 29.0.0, SVG Export Plug-In . SVG Version: 2.1.0 Build 186)  -->
  <defs>
    <style>
      .st0 {
        fill: #8b8fff;
      }

      .st1 {
        fill: #fff;
      }
    </style>
  </defs>
  <path class="st0" d="M160.24,10.66c64.7-4.96,120.97,52.37,109.22,117.45-8.03,44.49-56.99,104.98-89.59,135.72-4.58,4.32-9.68,10.04-16.1,5.6-6.93-4.78-18.56-18-24.71-24.69-27.13-29.5-63.68-76.05-71.13-116.01C57.1,70.68,102.12,15.12,160.24,10.66ZM162.46,78.75c-40.22,5.44-35.92,70.11,7.26,68.68,46.5-1.54,43.34-75.53-7.26-68.68Z"/>
  <path class="st0" d="M110.64,239.03l16.05,17.31c-29.78,15.13-16.38,32.74,9,40.42,19.41,5.87,46.45,5.87,65.86,0,25.41-7.68,38.76-25.3,9-40.42l16.18-17.44c29.12,6.72,74.59,35.32,39.55,66.45-40.35,35.85-155.68,35.93-195.73-.34-34.36-31.12,11.17-59.55,40.08-65.97Z"/>
  <path class="st1" d="M162.46,78.75c50.6-6.85,53.76,67.15,7.26,68.68-43.18,1.43-47.48-63.24-7.26-68.68Z"/>
</svg>