<?xml version="1.0" encoding="UTF-8"?>
<svg id="Lager_1" xmlns="http://www.w3.org/2000/svg" version="1.1" viewBox="0 0 32.87 32.01">
  <!-- Generator: Adobe Illustrator 29.0.0, SVG Export Plug-In . SVG Version: 2.1.0 Build 186)  -->
  <defs>
    <style>
      .st0 {
        fill: #fff;
      }
    </style>
  </defs>
  <path class="st0" d="M17.75,17.31h11.49c.72,0,1.31-.59,1.31-1.31,0-.72-.59-1.31-1.31-1.31h-11.49V3.2c0-.72-.59-1.31-1.31-1.31-.72,0-1.31.59-1.31,1.31v11.49s-11.49,0-11.49,0c-.72,0-1.31.59-1.31,1.31,0,.36.15.69.38.93s.56.38.93.38h11.49v11.49c0,.36.15.69.38.93s.56.38.93.38c.72,0,1.31-.59,1.31-1.31v-11.49Z"/>
</svg>